<!DOCTYPE svg PUBLIC "-//W3C//DTD SVG 1.1//EN" "http://www.w3.org/Graphics/SVG/1.1/DTD/svg11.dtd">
<!-- Uploaded to: SVG Repo, www.svgrepo.com, Transformed by: SVG Repo Mixer Tools -->
<svg fill="#000000" width="800px" height="800px" viewBox="-102.4 -102.4 1228.80 1228.80" xmlns="http://www.w3.org/2000/svg" class="icon">
<g id="SVGRepo_bgCarrier" stroke-width="0">
<rect x="-102.4" y="-102.4" width="1228.80" height="1228.80" rx="614.4" fill="#ffffff" strokewidth="0"/>
</g>
<g id="SVGRepo_tracerCarrier" stroke-linecap="round" stroke-linejoin="round"/>
<g id="SVGRepo_iconCarrier"> <path d="M709.6 210l.4-.2h.2L512 96 313.9 209.8h-.2l.7.3L151.5 304v416L512 928l360.5-208V304l-162.9-94zM482.7 843.6L339.6 761V621.4L210 547.8V372.9l272.7 157.3v313.4zM238.2 321.5l134.7-77.8 138.9 79.7 139.1-79.9 135.2 78-273.9 158-274-158zM814 548.3l-128.8 73.1v139.1l-143.9 83V530.4L814 373.1v175.2z"/> </g>
</svg>
